<?xml version="1.0" encoding="UTF-8"?>
<svg version="1.1" xmlns="http://www.w3.org/2000/svg" width="360" height="360">
<path d="M0 0 C1.70757793 -0.00573832 1.70757793 -0.00573832 3.44965237 -0.01159257 C7.25482756 -0.02189102 11.05985096 -0.01793633 14.86503601 -0.01396179 C17.59710627 -0.01721748 20.32916815 -0.02342931 23.06123352 -0.02944946 C29.70669236 -0.04217982 36.35211075 -0.0439922 42.99757973 -0.0416492 C48.40157086 -0.03986386 53.80554975 -0.04162032 59.20953941 -0.04587364 C60.36463829 -0.04676643 60.36463829 -0.04676643 61.54307249 -0.04767724 C63.10764017 -0.04888904 64.67220786 -0.05010317 66.23677554 -0.05131962 C80.90018063 -0.06218896 95.5635627 -0.06003566 110.22696909 -0.05393478 C123.62740091 -0.04876734 137.02776001 -0.06001755 150.42817745 -0.07903299 C164.20221187 -0.09842808 177.9762119 -0.10666439 191.75026006 -0.10290974 C199.47749582 -0.10100008 207.20466971 -0.10346222 214.9318943 -0.11762428 C221.51097154 -0.12956044 228.08994882 -0.13091807 234.66902748 -0.11883412 C238.02236882 -0.1129607 241.37537837 -0.11344212 244.72873116 -0.12383652 C248.37238212 -0.13431438 252.01554598 -0.1261942 255.65917969 -0.11352539 C256.70725605 -0.12089968 257.75533241 -0.12827396 258.83516866 -0.13587171 C272.2414404 -0.038168 284.28412214 4.15487027 294.27006531 13.26069641 C304.43932703 24.05070302 307.82985409 37.31881459 307.78749084 51.72717285 C307.79202196 52.864147 307.79655307 54.00112116 307.80122149 55.17254907 C307.81385688 58.9730506 307.81224564 62.77340866 307.81059265 66.57392883 C307.81549336 69.30275511 307.82332786 72.03157139 307.83094788 74.76039124 C307.84752805 81.39849548 307.85305609 88.03656419 307.85417263 94.67468741 C307.85512462 100.07389455 307.85924243 105.47309002 307.86557388 110.87229347 C307.88317894 126.19835102 307.89241402 141.5243806 307.89091294 156.85044833 C307.89083302 157.67588147 307.89075311 158.5013146 307.89067078 159.35176086 C307.89058902 160.17820834 307.89050725 161.00465581 307.89042301 161.85614715 C307.88961055 175.24231415 307.90874021 188.62836852 307.93694751 202.01450296 C307.96571825 215.77724804 307.97948547 229.53993827 307.97775996 243.30271417 C307.97709745 251.02221296 307.9825282 258.74159369 308.00411606 266.46106529 C308.02238322 273.03498117 308.0266301 279.60872548 308.01309721 286.18265583 C308.00659484 289.53228233 308.0085501 292.88131349 308.02380371 296.23095131 C308.10355313 314.96252987 307.73924074 331.49567912 294.27006531 346.01069641 C284.47149405 355.18198606 273.8109512 358.71917611 260.66722107 358.65510559 C259.48870583 358.66119669 258.31019059 358.6672878 257.09596276 358.67356348 C253.84204736 358.68728734 250.58845436 358.6876583 247.33452487 358.68218851 C243.8183541 358.67951032 240.30224704 358.69406498 236.78610229 358.70628357 C229.90367523 358.7273075 223.02133245 358.73188013 216.13887706 358.73009568 C210.54181088 358.72878636 204.94477091 358.73260086 199.34770966 358.74002075 C197.73343222 358.74212003 196.11915477 358.74421763 194.50487733 358.74631357 C193.29953077 358.74787886 193.29953077 358.74787886 192.06983379 358.74947578 C176.88180951 358.76836637 161.69383357 358.76733176 146.50580242 358.76050645 C132.62747627 358.75493357 118.74933487 358.77574758 104.87105188 358.80886692 C90.60544823 358.84264506 76.33993297 358.85776701 62.07428861 358.85314989 C54.07143262 358.85090914 46.06874732 358.85609023 38.0659256 358.88104248 C31.25150153 358.90210915 24.43734171 358.90559484 17.6229066 358.88674289 C14.14988042 358.87761728 10.67734619 358.87634296 7.20435905 358.89709854 C3.42940863 358.91532643 -0.34424382 358.90251268 -4.11915588 358.88215637 C-5.20322889 358.89467422 -6.28730189 358.90719207 -7.40422559 358.92008924 C-19.04086033 358.78615171 -29.0946145 354.30248393 -37.47993469 346.26069641 C-44.91175934 338.27247847 -50.58693151 329.46886017 -50.61694908 318.30422211 C-50.62202362 317.30044037 -50.62709817 316.29665864 -50.63232648 315.26245928 C-50.63282424 314.16170297 -50.633322 313.06094666 -50.63383484 311.92683411 C-50.63821709 310.75582012 -50.64259935 309.58480613 -50.6471144 308.37830687 C-50.65817139 305.12685417 -50.66472448 301.87542862 -50.66929555 298.62396145 C-50.67525808 295.11728381 -50.6868664 291.61062384 -50.69758606 288.10395813 C-50.72209684 279.63386571 -50.73673614 271.16376745 -50.74964613 262.69365048 C-50.7533593 260.3002546 -50.75733244 257.90685929 -50.76139879 255.51346397 C-50.78663874 240.64308373 -50.80868661 225.77270254 -50.82112694 210.9023056 C-50.82405652 207.45861813 -50.8270182 204.01493069 -50.83003235 200.57124329 C-50.8307784 199.71535596 -50.83152445 198.85946864 -50.83229311 197.97764534 C-50.84493893 184.12171083 -50.8781522 170.26590488 -50.91983418 156.41003042 C-50.96230113 142.1762088 -50.98582754 127.94245289 -50.9910475 113.7085681 C-50.99445644 105.72016491 -51.00615019 97.73196253 -51.03915024 89.74362183 C-51.06721758 82.93827177 -51.07812097 76.13316371 -51.06695478 69.32776028 C-51.06178489 65.85879594 -51.06454443 62.39033781 -51.08942032 58.92144775 C-51.11215207 55.15068912 -51.10379597 51.38119407 -51.0879364 47.61042786 C-51.10181849 46.52751732 -51.11570058 45.44460679 -51.13000333 44.32888079 C-50.9964416 31.38393603 -45.38954395 21.52238767 -36.64009094 12.32710266 C-26.37369804 2.5645818 -13.69583595 -0.04907332 0 0 Z " fill="#58595B" transform="translate(50.47993469238281,1.7393035888671875)"/>
<path d="M0 0 C0.87261475 0.0112793 1.74522949 0.02255859 2.64428711 0.03417969 C28.30520902 0.56103157 54.32714361 5.65247184 77.75 16.3125 C78.3677832 16.58400879 78.98556641 16.85551758 79.62207031 17.13525391 C102.70336124 27.28586534 123.17471374 41.34607612 141.27539062 58.88476562 C142.7092092 60.27300586 144.15909281 61.6445932 145.609375 63.015625 C152.74838651 69.91263612 158.89026724 77.32668871 164.75 85.3125 C165.16072754 85.86824707 165.57145508 86.42399414 165.99462891 86.99658203 C184.69401986 112.65458645 196.06931177 142.25765116 201.75 173.3125 C201.99492187 174.52292969 202.23984375 175.73335937 202.4921875 176.98046875 C203.85588194 184.6489149 204.00982202 192.35470042 204.125 200.125 C204.15118408 201.1876709 204.17736816 202.2503418 204.2043457 203.34521484 C204.22362224 212.44517021 201.91414093 219.96770362 195.6328125 226.73828125 C189.54232903 231.83053195 182.34483837 234.21707041 174.44921875 233.7890625 C166.7378556 232.42757725 161.27352476 228.48825704 156.22265625 222.66796875 C152.18595248 216.2113842 151.37684746 210.2464786 151.3125 202.75 C151.08700847 194.74361447 150.26539582 187.013355 148.875 179.125 C148.71330322 178.19421631 148.55160645 177.26343262 148.38500977 176.30444336 C146.59003784 166.57389793 143.67642598 157.38556434 139.75 148.3125 C139.49653809 147.7158252 139.24307617 147.11915039 138.98193359 146.50439453 C122.78906838 108.77717015 92.95337764 79.70633255 54.95556641 64.16992188 C48.97490908 61.90447252 42.90922441 60.02566997 36.75 58.3125 C35.64857666 57.99611572 35.64857666 57.99611572 34.52490234 57.67333984 C23.5685056 54.60334697 12.66828466 53.63938101 1.31396484 53.1706543 C-7.71060859 52.70592932 -15.66684939 51.36382318 -22.125 44.625 C-27.3251448 37.9619303 -30.06225997 31.63559281 -29.69140625 23.08203125 C-28.44949058 15.28983472 -24.40591922 9.80718436 -18.5078125 4.78515625 C-12.26306872 0.71202752 -7.31417782 -0.15777224 0 0 Z " fill="#FDFDFD" transform="translate(91.25,64.6875)"/>
<path d="M0 0 C0.7731958 0.00684814 1.5463916 0.01369629 2.34301758 0.02075195 C30.10903462 0.76306962 61.10263105 12.54433474 81 32.3125 C81.94608977 33.34637129 82.88492119 34.38698906 83.8125 35.4375 C84.616875 36.22125 85.42125 37.005 86.25 37.8125 C101.87919931 53.8228993 112.58016894 72.62348211 117.8125 94.4375 C118.11027344 95.51902344 118.40804687 96.60054688 118.71484375 97.71484375 C120.49275353 104.73635841 121.14079711 111.53595045 121.25 118.75 C121.27223633 119.57387207 121.29447266 120.39774414 121.31738281 121.24658203 C121.28760423 129.47705148 118.32142311 136.79895599 112.6953125 142.86328125 C106.60482903 147.95553195 99.40733837 150.34207041 91.51171875 149.9140625 C83.80165486 148.55280665 78.00863235 144.61392965 73.21484375 138.51171875 C69.27573994 132.68535628 68.67243086 127.73872631 68.375 120.875 C67.46628659 100.80621617 59.40511432 84.00391078 44.8125 70.4375 C31.33527398 59.08028707 16.28822269 54.02331296 -1.125 52.9375 C-8.79151446 52.44016185 -14.79031548 50.73554608 -20.51171875 45.421875 C-25.92724677 39.00908191 -29.24723288 31.55315822 -28.69921875 23.1015625 C-27.21379055 15.36826457 -23.36076098 9.94695025 -17.4453125 4.91015625 C-11.81165018 1.23560488 -6.66104456 -0.09287569 0 0 Z " fill="#FDFDFD" transform="translate(90.1875,148.5625)"/>
<path d="M0 0 C8.43059329 5.26026514 15.89184481 11.61594542 18.49609375 21.6015625 C19.94135781 31.78057284 19.1008299 40.8015605 13.171875 49.34765625 C7.32940061 56.60736453 -0.75670049 62.01577521 -10.140625 63.16015625 C-19.80454193 63.81533706 -27.63379432 61.44680744 -35.1015625 55.1796875 C-41.88300042 48.46320588 -46.19621278 40.2917141 -46.515625 30.72265625 C-46.21748957 21.71648191 -43.09059492 13.96543434 -37.140625 7.16015625 C-27.08961834 -1.29621954 -12.72569345 -6.05315064 0 0 Z " fill="#FCFCFC" transform="translate(108.140625,234.83984375)"/>
<path d="M0 0 C0.66 0.33 1.32 0.66 2 1 C-2.62 5.62 -7.24 10.24 -12 15 C-12 10.09687565 -8.29800369 7.38658643 -5 4 C-3.37458956 2.61667196 -1.72614587 1.25537882 0 0 Z " fill="#4D4E4F" transform="translate(20,9)"/>
</svg>
